PathFileType	4	(X/Y/Z)	/Users/niels/Desktop/University/Third Semester/Perception and Action/Exam/Gymnastics Motion Tracking/Code for Gym Tracking/Analyzed Data/Webcam_Backflip/id4_5_baseline_Sports2D/id4_5_baseline_Sports2D_px_person00.trc
DataRate	CameraRate	NumFrames	NumMarkers	Units	OrigDataRate	OrigDataStartFrame	OrigNumFrames
29.8125	29.8125	12	22	m	29.8125	140	160
Frame#	Time	Hip			RHip			RKnee			RAnkle			RBigToe			RSmallToe			RHeel			LHip			LKnee			LAnkle			LBigToe			LSmallToe			LHeel			Neck			Head			Nose			RShoulder			RElbow			RWrist			LShoulder			LElbow			LWrist		
		X1	Y1	Z1	X2	Y2	Z2	X3	Y3	Z3	X4	Y4	Z4	X5	Y5	Z5	X6	Y6	Z6	X7	Y7	Z7	X8	Y8	Z8	X9	Y9	Z9	X10	Y10	Z10	X11	Y11	Z11	X12	Y12	Z12	X13	Y13	Z13	X14	Y14	Z14	X15	Y15	Z15	X16	Y16	Z16	X17	Y17	Z17	X18	Y18	Z18	X19	Y19	Z19	X20	Y20	Z20	X21	Y21	Z21	X22	Y22	Z22
140	4.696016771488469	0.8563287117614433	-0.5706629226733938	0.0	0.8521089952765208	-0.5715050630232682	0.0	0.8648980041910362	-0.6753456486941585	0.0	0.8380679656680714	-0.7789114357968692	0.0	0.8745726381288363	-0.8004279053279719	0.0	0.8636524099164266	-0.8029618903627159	0.0	0.8293149280149373	-0.7952621064147386	0.0	0.8592075171586603	-0.5697743633590211	0.0	0.8644198342362863	-0.675380717697468	0.0	0.8375685386781928	-0.7749300960217764	0.0	0.8781861176494782	-0.7981589170868033	0.0	0.8716880590229293	-0.7940560585504812	0.0	0.8260396321598769	-0.7894636139613697	0.0	0.8659609567792759	-0.4188351243671079	0.0	0.9016095557892239	-0.3589673320218412	0.0	0.9042008549810903	-0.3979702152308871	0.0	0.8517937089567371	-0.4413187432961558	0.0	0.8302306374583327	-0.5154722249068456	0.0	0.8281147610378355	-0.586004461349015	0.0	0.859738102318381	-0.4387007802985143	0.0	0.8438528012891959	-0.507822129385203	0.0	0.840485259953133	-0.574455728652301	0.0
141	4.729559748427672	0.8558217208075592	-0.5619089449741451	0.0	0.8511881999311974	-0.5625729837875985	0.0	0.8668537647699726	-0.6665505523411124	0.0	0.8382872249834569	-0.7710343341075487	0.0	0.8766095278154514	-0.7938605094102722	0.0	0.8652630624997396	-0.7964722256926751	0.0	0.8291446433696721	-0.7886248481557391	0.0	0.858576073091044	-0.5610542194806826	0.0	0.8694757605369552	-0.6665359302422289	0.0	0.8385453008102749	-0.7658283579495828	0.0	0.8794620002030233	-0.7909655075563216	0.0	0.873309492010873	-0.7867801324519653	0.0	0.8268161639564124	-0.7816588790636616	0.0	0.8657116448009166	-0.4107031777847761	0.0	0.9027521492417206	-0.35069622593860644	0.0	0.9035593898779526	-0.38919920982207606	0.0	0.851475096895414	-0.4327657719368554	0.0	0.8325645487607508	-0.5081042570084742	0.0	0.8389307080855679	-0.5784562851178507	0.0	0.8592903492765276	-0.43016879627224186	0.0	0.8468064019265561	-0.49976653524940046	0.0	0.8526770831734355	-0.5645762596126657	0.0
142	4.763102725366876	0.8546394491907516	-0.5543087224558249	0.0	0.8495129537401767	-0.5548152408555723	0.0	0.8685736168472686	-0.6587644192123128	0.0	0.8384489951718367	-0.7645648369436672	0.0	0.8787582833478204	-0.787954197410531	0.0	0.8669665464342345	-0.790749413030325	0.0	0.8287790944702736	-0.7829552286759489	0.0	0.8577174328901688	-0.5534169464064865	0.0	0.8760911198476179	-0.6580664116583541	0.0	0.8409248007116836	-0.757273695375084	0.0	0.8818959979884364	-0.7841532002193715	0.0	0.8763126711224258	-0.7797846389308338	0.0	0.8292203679815832	-0.7741173949201617	0.0	0.865592292879463	-0.40390167945443484	0.0	0.9035480805902645	-0.34341366280281344	0.0	0.9031703203100032	-0.3815818752180959	0.0	0.8513599285124858	-0.42562273398484674	0.0	0.8353298987346546	-0.501979330658178	0.0	0.8507441889874854	-0.570851198288918	0.0	0.8588785097672161	-0.42300603368519507	0.0	0.8499232692939624	-0.49290703442416167	0.0	0.8649613816295573	-0.5540241670713726	0.0
143	4.796645702306079	0.8529377241715407	-0.548632520324515	0.0	0.8474287709442297	-0.5489783338070621	0.0	0.8695693612026705	-0.6529397890306243	0.0	0.8384956937650503	-0.7602108245966632	0.0	0.8810593176227821	-0.7833524701494019	0.0	0.8690575872983575	-0.7863806751551629	0.0	0.8281305731464959	-0.778904585550888	0.0	0.8568791682070485	-0.5476171341418679	0.0	0.8837619126815758	-0.6506896363735766	0.0	0.8453816460023089	-0.7501222557303207	0.0	0.8864590637382912	-0.7782607150746073	0.0	0.8815952827246625	-0.7736997811707843	0.0	0.8338580502038657	-0.7675824098661578	0.0	0.8656190676833919	-0.3989709492909815	0.0	0.9039090073278536	-0.33772581062361134	0.0	0.9030332276722053	-0.37593125448294024	0.0	0.8515753263736006	-0.42040668402344555	0.0	0.8387017226144131	-0.49752423835941595	0.0	0.8631955356831519	-0.5636862496966073	0.0	0.8586039991238742	-0.4178012319105688	0.0	0.8533809441853952	-0.4878308117631805	0.0	0.8769692451396703	-0.5433493119640966	0.0
144	4.830188679245282	0.8509798160340881	-0.54533762572596	0.0	0.8453485277489623	-0.5454718041632167	0.0	0.8692632030353561	-0.6498247172827902	0.0	0.8383525510698633	-0.7583924388254664	0.0	0.8829728435669755	-0.7806710006434142	0.0	0.871198462711205	-0.7838916163529958	0.0	0.8272352338843568	-0.7769447624458456	0.0	0.8563022000409763	-0.5440701188780073	0.0	0.8915108319905173	-0.6449888112429708	0.0	0.8525719202397656	-0.7451009953944988	0.0	0.8938748332131495	-0.7737149752774237	0.0	0.8897125098809276	-0.7690464623282974	0.0	0.8413597904937207	-0.7627551188757703	0.0	0.8657351429469172	-0.3962816901562924	0.0	0.9039229234870493	-0.334095074472484	0.0	0.9030437436986242	-0.3727675795677139	0.0	0.852191142258991	-0.4174068288236119	0.0	0.8428412914968108	-0.4949565216802161	0.0	0.8758771905530128	-0.5574466309530891	0.0	0.8583143242919753	-0.41482935731286114	0.0	0.8571670919484443	-0.48473755837688587	0.0	0.8883024610682397	-0.5331553581230013	0.0
145	4.863731656184486	0.8490554618485757	-0.5446148821773295	0.0	0.8435105512412611	-0.5444144138822459	0.0	0.866959803711827	-0.6498339693724816	0.0	0.8379039839268951	-0.759232968350595	0.0	0.8835315187044238	-0.7803307827545548	0.0	0.8723215582134527	-0.7836488746955639	0.0	0.8262234487126399	-0.7772627754645426	0.0	0.8562091947388151	-0.5428883432000684	0.0	0.898319453997889	-0.6413306443489611	0.0	0.8629805331084447	-0.7424162191524603	0.0	0.9043830168046869	-0.7705956018591608	0.0	0.9007037993242653	-0.7660022308781717	0.0	0.8522956797436945	-0.759881867090231	0.0	0.8658431767090181	-0.3960072934122934	0.0	0.9037226155554715	-0.3328078139740257	0.0	0.9030909393475424	-0.3723284345880962	0.0	0.8531765921266473	-0.416708254332164	0.0	0.8477627260667314	-0.49430006963756234	0.0	0.8882922584121739	-0.5524328478537393	0.0	0.8577684002982944	-0.41413402178667413	0.0	0.8610972045678023	-0.4835371959840166	0.0	0.8984730614669283	-0.5240097136640669	0.0
146	4.897274633123689	0.8474444423547545	-0.5464993266492022	0.0	0.8419888720010177	-0.5458198788668891	0.0	0.8626531787036352	-0.6529549256513891	0.0	0.8371193494688327	-0.7625064296579616	0.0	0.8820029419560032	-0.7823504530568928	0.0	0.8713835160430395	-0.7856688160535757	0.0	0.8252627145495274	-0.7797080401217706	0.0	0.856657439596337	-0.5440762705353878	0.0	0.9035525164226346	-0.6399591588699612	0.0	0.8763889292189931	-0.7418620710407653	0.0	0.9175615345111761	-0.7687247315646738	0.0	0.9140383169763575	-0.7644582035079596	0.0	0.8665921305856252	-0.7588710496447033	0.0	0.8658740517817074	-0.3981355098318612	0.0	0.9033841011290386	-0.3339473064346308	0.0	0.9031076329600509	-0.37456974061490134	0.0	0.8544209786141663	-0.4182766669639096	0.0	0.8532072245011135	-0.49546602091664654	0.0	0.8999438937618233	-0.5488040113082552	0.0	0.8567816142247018	-0.41564604526691845	0.0	0.8649304438948728	-0.48405949075005816	0.0	0.9070879922766063	-0.5164746896127039	0.0
147	4.930817610062892	0.8463447049136729	-0.5508396391551499	0.0	0.8408381186488755	-0.5496429916278267	0.0	0.8576683938665153	-0.6586782980707357	0.0	0.8361603791149681	-0.7676342908078881	0.0	0.8784374486993121	-0.7862849123659299	0.0	0.8682370447173523	-0.789520404184236	0.0	0.8244996002038457	-0.783858351972187	0.0	0.8573851734265578	-0.547600542488965	0.0	0.907079245354737	-0.6410711159131175	0.0	0.8915058841499972	-0.7432861087739734	0.0	0.9323060720167604	-0.7680217298864166	0.0	0.9286668653368348	-0.764326499250281	0.0	0.883018165454486	-0.7597662296717579	0.0	0.8658083278364715	-0.4024772743958096	0.0	0.9029401232814319	-0.33738591390828504	0.0	0.9030852758187498	-0.3791785698608261	0.0	0.8557767833894508	-0.4219933826918183	0.0	0.8586891504047681	-0.4983458977333316	0.0	0.9104511252275084	-0.5467205520901408	0.0	0.855282789345687	-0.4192390543475354	0.0	0.8684792225300266	-0.48619477494892444	0.0	0.914034822057257	-0.511111830960221	0.0
148	4.964360587002096	0.8458122649210775	-0.5572176740300322	0.0	0.8401123662051002	-0.5556622832389021	0.0	0.8536857333242797	-0.6661525379589714	0.0	0.8352619766217383	-0.7739198538872892	0.0	0.8735113752564663	-0.7913940987298405	0.0	0.8635511378309697	-0.7944920904114494	0.0	0.8240048186722926	-0.7891927885183326	0.0	0.8580364026513797	-0.5532940472571327	0.0	0.9091884454582211	-0.6446750052448064	0.0	0.9064687863553836	-0.7466321175413424	0.0	0.9471139903874025	-0.7686069979495609	0.0	0.9432424185375512	-0.7656353910346263	0.0	0.8996057905205671	-0.762706313204117	0.0	0.8656655956437166	-0.4086589740544821	0.0	0.9024261245969092	-0.342792169983317	0.0	0.9030609213957896	-0.3856388901238004	0.0	0.8570887472699585	-0.4275936275590243	0.0	0.8637301472545388	-0.5028434592684551	0.0	0.9195930740214068	-0.5464046561360814	0.0	0.8533917402763078	-0.4246945525114389	0.0	0.871666920447793	-0.4899285060744065	0.0	0.9195386529141157	-0.5083790549405397	0.0
149	4.997903563941299	0.8458012679528176	-0.5649806154670058	0.0	0.8398162961595993	-0.56337722470924	0.0	0.8515269564989147	-0.6744778939437862	0.0	0.8345674478450471	-0.7807774964156474	0.0	0.8680341992594124	-0.7968882758513139	0.0	0.8581776098419523	-0.7998665406345409	0.0	0.8237742412504943	-0.7951977918651072	0.0	0.8585272747654846	-0.5607357698554463	0.0	0.9103977208489595	-0.650397900954549	0.0	0.9196257878668078	-0.7516526834283327	0.0	0.9604906335806761	-0.770611470230256	0.0	0.9564035872345579	-0.7683726193059569	0.0	0.9144791937646969	-0.7675463640156311	0.0	0.8654868411482283	-0.41614272027248117	0.0	0.9018977094748448	-0.3496628447239756	0.0	0.9030765150816481	-0.3933180100745869	0.0	0.8581926619469299	-0.4346206339847112	0.0	0.8680409932335631	-0.508789341223078	0.0	0.9272807164148963	-0.5480916389708108	0.0	0.8514794383960878	-0.4316402487720941	0.0	0.8744756720018205	-0.4952780354293726	0.0	0.9240021718113898	-0.5085460165393718	0.0
150	5.031446540880502	0.8462450412331238	-0.5733427855517813	0.0	0.8399315995917508	-0.5719977230358836	0.0	0.8511348039494023	-0.6828123190569402	0.0	0.8341049498372093	-0.7876827406406912	0.0	0.8626071480268895	-0.8021027851586063	0.0	0.8528060597558005	-0.8050834018506537	0.0	0.823783279477771	-0.8013136598323035	0.0	0.8590908091167286	-0.5691924914751749	0.0	0.911241227336442	-0.6574911566251987	0.0	0.9298961384140275	-0.7577992893392169	0.0	0.9712408171407041	-0.7739731446433922	0.0	0.9670121409789563	-0.7723417050654978	0.0	0.9262969620413573	-0.7737583320352251	0.0	0.8653379884949088	-0.4242751755142132	0.0	0.9014447593014191	-0.3573763831102255	0.0	0.9031728583747151	-0.4015212503307733	0.0	0.8589469310204207	-0.4424551196904897	0.0	0.8715047204758628	-0.515841850381654	0.0	0.933449726322621	-0.5518760246108045	0.0	0.850071118783947	-0.43953128306011563	0.0	0.8768530066808066	-0.5021082631321174	0.0	0.9276925438217819	-0.5116633556452335	0.0
151	5.064989517819706	0.8471015986736788	-0.5814885701521555	0.0	0.8404770081500978	-0.5805548927367863	0.0	0.8520600310427748	-0.6903598530096394	0.0	0.8338502117047202	-0.794068460683106	0.0	0.857547343576472	-0.806553450634703	0.0	0.8479128356814608	-0.8097430170285599	0.0	0.8240211451440235	-0.8069038947406931	0.0	0.8600315149735429	-0.5777086801161225	0.0	0.9121412487917322	-0.6650152228361209	0.0	0.9368828774925622	-0.7643337697715438	0.0	0.9787264203243171	-0.7783494173739317	0.0	0.9744275948477644	-0.7771172674017405	0.0	0.9344203418823049	-0.7805717929116266	0.0	0.8653416009722882	-0.43232119883302933	0.0	0.9012013296044724	-0.36523764619147636	0.0	0.9034196350604689	-0.4095109949909391	0.0	0.8593444497699922	-0.4503775181339495	0.0	0.8740711572914115	-0.5234733806813532	0.0	0.9379279640039456	-0.557544709299093	0.0	0.8495826030451449	-0.4476561825102718	0.0	0.8786742214497745	-0.5099635892857965	0.0	0.9305085700214196	-0.5175893050368366	0.0
